# xmcd
#
# Track frame offsets: 
#        150
#        23778
#        55831
#        84519
#        108597
#        133386
#        157183
#        184830
#        212109
#        235213
#        272573
#
# Disc length: 4151 seconds
#
# Revision: 3
# Processed by: cddbd v1.5.2PL0 Copyright (c) Steve Scherf et al.
# Submitted via: ExactAudioCopyFreeDBPlugin 1.0
#
DISCID=9e10350b
DTITLE=Tom Rob Smith - Kolyma  CD1
DYEAR=2009
DGENRE=Hörbuch
TTITLE0=Kolyma 101
TTITLE1=Kolyma 102
TTITLE2=Kolyma 103
TTITLE3=Kolyma 104
TTITLE4=Kolyma 105
TTITLE5=Kolyma 106
TTITLE6=Kolyma 107
TTITLE7=Kolyma 108
TTITLE8=Kolyma 109
TTITLE9=Kolyma 110
TTITLE10=Kolyma 111
EXTD=YEAR: 2009
EXTT0=
EXTT1=
EXTT2=
EXTT3=
EXTT4=
EXTT5=
EXTT6=
EXTT7=
EXTT8=
EXTT9=
EXTT10=
PLAYORDER=
